<svg xmlns="http://www.w3.org/2000/svg" viewBox="1639 1934 87.837 87.837"><defs><style>.a{fill:#6b0328;}</style></defs><g transform="translate(1639 1934)"><path class="a" d="M29.4,108.355a56.381,56.381,0,0,1-8.825,7.687A55.171,55.171,0,0,1,8.981,105.117C4.939,99.937,2.8,94.857,2.8,90.425A17.708,17.708,0,0,1,17.6,72.9a1.4,1.4,0,1,0-.465-2.764A20.579,20.579,0,0,0,0,90.425c0,5.063,2.341,10.739,6.771,16.416a58.129,58.129,0,0,0,11.916,11.3L16.7,121.38a1.4,1.4,0,0,0,1.2,2.133h1.273v19.936a1.4,1.4,0,0,0,2.8,0V123.513H23.25a1.4,1.4,0,0,0,0-2.8H20.4l1.213-1.983a58.915,58.915,0,0,0,9.84-8.463,1.4,1.4,0,0,0-2.053-1.91Z" transform="translate(0 -57.014)"/><path class="a" d="M39.838,103.16A15.029,15.029,0,0,0,30,117.222a1.4,1.4,0,1,0,2.8,0,12.216,12.216,0,0,1,8-11.43,1.4,1.4,0,1,0-.963-2.633Z" transform="translate(-24.393 -83.811)"/><path class="a" d="M326.6,77.073a20.593,20.593,0,0,0-12.217-6.935,1.4,1.4,0,1,0-.465,2.764,17.708,17.708,0,0,1,14.8,17.523c0,4.432-2.136,9.512-6.177,14.691a55.171,55.171,0,0,1-11.594,10.925,56.37,56.37,0,0,1-8.825-7.687,1.4,1.4,0,0,0-2.053,1.91,59.439,59.439,0,0,0,8.989,7.875l-1.982,3.241a1.4,1.4,0,0,0,1.2,2.133h1.273v19.936a1.4,1.4,0,1,0,2.8,0V123.514h1.273a1.4,1.4,0,0,0,0-2.8h-2.85l1.213-1.984a58.007,58.007,0,0,0,12.766-11.884c4.43-5.677,6.771-11.353,6.771-16.416A20.577,20.577,0,0,0,326.6,77.073Z" transform="translate(-243.686 -57.014)"/><path class="a" d="M146.713,43.165c5.182-6.642,7.922-13.274,7.922-19.181a23.984,23.984,0,1,0-47.967,0c0,5.907,2.739,12.54,7.922,19.181a68.2,68.2,0,0,0,14.171,13.392l-2.455,4.016a1.4,1.4,0,0,0,1.2,2.133h1.748v23.73a1.4,1.4,0,0,0,2.8,0V62.706H133.8a1.4,1.4,0,1,0,0-2.8H130l1.689-2.762A68.046,68.046,0,0,0,146.713,43.165ZM116.8,41.44c-4.794-6.144-7.329-12.181-7.329-17.457a21.18,21.18,0,1,1,42.361,0c0,5.276-2.534,11.312-7.329,17.457a65.224,65.224,0,0,1-13.852,13.018A65.218,65.218,0,0,1,116.8,41.44Z" transform="translate(-86.733)"/><path class="a" d="M138.07,49.776a1.4,1.4,0,0,0,1.4-1.4A15.592,15.592,0,0,1,155.045,32.8a1.4,1.4,0,0,0,0-2.8,18.4,18.4,0,0,0-18.377,18.374,1.4,1.4,0,0,0,1.4,1.4Z" transform="translate(-111.126 -24.393)"/><path class="a" d="M144.95,151.232a1.4,1.4,0,0,0-2.643.936,35.456,35.456,0,0,0,5.616,9.757,1.4,1.4,0,1,0,2.21-1.724A32.686,32.686,0,0,1,144.95,151.232Z" transform="translate(-115.647 -122.209)"/></g></svg>