<svg xmlns="http://www.w3.org/2000/svg" viewBox="1832 1933 90 90"><defs><style>.a{fill:#e6a613;}</style></defs><g transform="translate(1832 1933)"><path class="a" d="M88.564,148.186h-6.87V115.058a9.106,9.106,0,0,0-9.1-9.1H50.266V92.9a3.355,3.355,0,0,0-3.351-3.351h-.479V85.245a1.436,1.436,0,1,0-2.872,0v4.309h-.479A3.355,3.355,0,0,0,39.734,92.9v13.058H16.173a9.106,9.106,0,0,0-9.1,9.1v33.128H1.436a1.436,1.436,0,1,0,0,2.872h.832l.828,2.9a5.478,5.478,0,0,0,5.042,3.8H81.862a5.478,5.478,0,0,0,5.042-3.8l.828-2.9h.832a1.436,1.436,0,0,0,0-2.872ZM42.606,92.9a.485.485,0,0,1,.479-.479h3.83a.485.485,0,0,1,.479.479v13.058H42.606Zm-26.434,15.93H72.6a6.231,6.231,0,0,1,6.223,6.223v4.4a10.025,10.025,0,0,0-5.468,2.758c-1.446,1.217-2.589,2.179-5.055,2.179s-3.608-.961-5.055-2.179a9.778,9.778,0,0,0-13.808,0c-1.446,1.217-2.588,2.179-5.054,2.179s-3.607-.961-5.054-2.179a9.777,9.777,0,0,0-13.807,0,9.41,9.41,0,0,1-2.691,1.785,1.436,1.436,0,0,0-.926,1.343v9.82a1.436,1.436,0,0,1-2.872,0V125.4a1.436,1.436,0,0,0-.926-1.389,9.41,9.41,0,0,1-2.691-1.785,10.022,10.022,0,0,0-5.467-2.758v-4.4A6.231,6.231,0,0,1,16.173,108.835ZM9.949,122.371a7.652,7.652,0,0,1,3.617,2.047,14.314,14.314,0,0,0,2.595,1.855v8.9a4.309,4.309,0,1,0,8.617,0v-8.9a14.312,14.312,0,0,0,2.594-1.855c1.446-1.217,2.588-2.179,5.054-2.179s3.608.961,5.054,2.179a9.777,9.777,0,0,0,13.807,0c1.446-1.217,2.588-2.179,5.054-2.179s3.608.961,5.055,2.179a9.779,9.779,0,0,0,13.808,0,7.655,7.655,0,0,1,3.618-2.047v25.815H9.949V122.371Zm74.193,30.8a2.624,2.624,0,0,1-2.28,1.72H8.138a2.623,2.623,0,0,1-2.28-1.72l-.6-2.11h79.49Z" transform="translate(0 -67.761)"/><path class="a" d="M190.686,18.3a1.436,1.436,0,0,0,1.071-2.393,6.24,6.24,0,0,1-1.589-4.16c0-3.363,2.547-6.874,6.263-8.723,3.716,1.848,6.263,5.359,6.263,8.723A6.241,6.241,0,0,1,201.1,15.9a1.436,1.436,0,1,0,2.142,1.913,9.109,9.109,0,0,0,2.319-6.073c0-4.641-3.52-9.421-8.56-11.623a1.437,1.437,0,0,0-1.15,0c-5.04,2.2-8.56,6.982-8.56,11.623a9.109,9.109,0,0,0,2.319,6.073A1.43,1.43,0,0,0,190.686,18.3Z" transform="translate(-151.43 0)"/></g></svg>