<svg xmlns="http://www.w3.org/2000/svg" viewBox="1140 1540 44.569 41.09"><defs><style>.a{fill:#6b0328;}</style></defs><g transform="translate(1140 1410.261)"><path class="a" d="M11.7,1.739A10.845,10.845,0,0,1,19.3,4.6a12.58,12.58,0,0,1,2.984,4.317A12.756,12.756,0,0,1,25.253,4.6a10.883,10.883,0,0,1,7.619-2.857,11.7,11.7,0,0,1,11.7,11.7c0,5.54-6.063,12.031-10.365,16.619-.778.825-1.492,1.587-2.143,2.317L23.125,42.452a1.108,1.108,0,0,1-1.571.1.683.683,0,0,1-.111-.1L12.507,32.373c-.587-.651-1.349-1.46-2.174-2.349C6.031,25.437,0,18.993,0,13.437a11.7,11.7,0,0,1,11.7-11.7Zm6.095,4.492A8.667,8.667,0,0,0,11.7,3.977a9.485,9.485,0,0,0-9.46,9.46c0,4.682,5.682,10.746,9.73,15.063.794.841,1.54,1.635,2.206,2.4l8.111,9.143L30.4,30.9c.6-.667,1.365-1.492,2.19-2.365,4.032-4.317,9.746-10.412,9.746-15.1a9.457,9.457,0,0,0-9.46-9.46,8.667,8.667,0,0,0-6.095,2.254A12.121,12.121,0,0,0,23.4,12.85a1.124,1.124,0,0,1-2.206.032,12.19,12.19,0,0,0-3.4-6.651Z" transform="translate(0 128)"/></g></svg>