<svg xmlns="http://www.w3.org/2000/svg" viewBox="617 1534 41.324 41.324"><defs><style>.a{fill:#c13611;}</style></defs><g transform="translate(617 1534)"><g transform="translate(0 0)"><path class="a" d="M34.26,44.069a.994.994,0,0,0-.994.994V69.9H1.988V38.623h24.32a.994.994,0,1,0,0-1.988H.994A.994.994,0,0,0,0,37.629V70.895a.994.994,0,0,0,.994.994H34.26a.994.994,0,0,0,.994-.994V45.063A.994.994,0,0,0,34.26,44.069Z" transform="translate(0 -30.565)"/><path class="a" d="M66.714.291a.994.994,0,0,0-1.406,0L39,26.595l-6.527-6.527a.994.994,0,1,0-1.406,1.406L38.3,28.7a.994.994,0,0,0,1.406,0L66.714,1.7A.994.994,0,0,0,66.714.291Z" transform="translate(-25.681 0)"/></g></g></svg>