<svg xmlns="http://www.w3.org/2000/svg" viewBox="2365 1947 81.149 71.519"><defs><style>.a{fill:#6b0328;}</style></defs><g transform="translate(2365 1944.284)"><g transform="translate(0 2.716)"><path class="a" d="M52.652,27.6a24.6,24.6,0,0,0-2.632-2.282,15.306,15.306,0,0,0-6.109,4.157,18.018,18.018,0,1,1-13.246-.514c.137-.372.282-.745.434-1.114a27.053,27.053,0,0,1,4.563-7.365,24.256,24.256,0,0,0-14.554,4.68L20.33,14.405a1.482,1.482,0,0,0-.458-.935l-3.7-3.7a1.385,1.385,0,0,0-2.018.007L.468,23.46a1.451,1.451,0,0,0-.06,2.073l3.659,3.659A1.474,1.474,0,0,0,5,29.635l10.859.779a24.314,24.314,0,1,0,36.8-2.814ZM5.162,26.108,3.578,24.523,15.168,12.935l1.584,1.584ZM18.285,27.6,8.555,26.89l9.059-9.059.683,9.752C18.291,27.585,18.289,27.592,18.285,27.6Z" transform="translate(0 2.405)"/><path class="a" d="M65.2,16.972l2.011-4.833a1.384,1.384,0,0,0-.777-1.864L48.572,2.842a1.451,1.451,0,0,0-1.94.734L44.644,8.354a1.465,1.465,0,0,0-.053,1.03L48.01,19.718A24.315,24.315,0,0,0,30.3,64.535a15.533,15.533,0,0,0,3.4-2.571q.3-.3.573-.61a18.023,18.023,0,1,1,11.272,1.087,26.892,26.892,0,0,1-3.573,5.2,24.321,24.321,0,0,0,12.9-45.069l9.647-4.822A1.5,1.5,0,0,0,65.2,16.972Zm-13.65,3.921-.018,0L48.48,11.624l11.829,4.921Zm11.486-6.407-15.131-6.3.86-2.068,15.129,6.3Z" transform="translate(13.816 -2.716)"/></g></g></svg>