<svg xmlns="http://www.w3.org/2000/svg" viewBox="883 1016 56.016 36.723"><defs><style>.a{fill:#1a835a;}</style></defs><g transform="translate(918 1022)"><g transform="translate(-35 -6)"><path class="a" d="M51.686,88H4.33A4.335,4.335,0,0,0,0,92.33v28.063a4.335,4.335,0,0,0,4.33,4.33H51.686a4.335,4.335,0,0,0,4.33-4.33V92.33A4.335,4.335,0,0,0,51.686,88Zm2.686,32.393a2.689,2.689,0,0,1-2.686,2.686H4.33a2.689,2.689,0,0,1-2.686-2.686V92.33A2.689,2.689,0,0,1,4.33,89.644H51.686a2.689,2.689,0,0,1,2.686,2.686Z" transform="translate(0 -88)"/><path class="a" d="M76.115,352H56.822a.822.822,0,1,0,0,1.644H76.115a.822.822,0,1,0,0-1.644Z" transform="translate(-49.861 -323.06)"/><path class="a" d="M272.715,352h-7.892a.822.822,0,1,0,0,1.644h7.892a.822.822,0,0,0,0-1.644Z" transform="translate(-235.06 -323.06)"/><path class="a" d="M58.576,168.66h5.262a2.579,2.579,0,0,0,2.576-2.576v-3.508A2.579,2.579,0,0,0,63.838,160H58.576A2.579,2.579,0,0,0,56,162.576v3.508A2.579,2.579,0,0,0,58.576,168.66Zm6.194-6.084v.932h-.932a.822.822,0,1,0,0,1.644h.932v.932a.933.933,0,0,1-.932.932H62.029v-5.371h1.809A.933.933,0,0,1,64.77,162.576Zm-6.194-.932h1.809v5.371H58.576a.933.933,0,0,1-.932-.932v-.932h.932a.822.822,0,1,0,0-1.644h-.932v-.932A.933.933,0,0,1,58.576,161.644Z" transform="translate(-49.861 -152.107)"/><path class="a" d="M56.822,291.4a.822.822,0,0,0,.822-.822v-1.754a.822.822,0,0,0-1.644,0v1.754A.822.822,0,0,0,56.822,291.4Z" transform="translate(-49.861 -266.076)"/><path class="a" d="M80,288.822v1.754a.822.822,0,1,0,1.644,0v-1.754a.822.822,0,0,0-1.644,0Z" transform="translate(-71.23 -266.076)"/><path class="a" d="M104,288.822v1.754a.822.822,0,1,0,1.644,0v-1.754a.822.822,0,0,0-1.644,0Z" transform="translate(-92.6 -266.076)"/><path class="a" d="M128,288.822v1.754a.822.822,0,1,0,1.644,0v-1.754a.822.822,0,0,0-1.644,0Z" transform="translate(-113.969 -266.076)"/><path class="a" d="M160.822,291.4a.822.822,0,0,0,.822-.822v-1.754a.822.822,0,0,0-1.644,0v1.754A.822.822,0,0,0,160.822,291.4Z" transform="translate(-142.461 -266.076)"/><path class="a" d="M184.822,291.4a.822.822,0,0,0,.822-.822v-1.754a.822.822,0,0,0-1.644,0v1.754A.822.822,0,0,0,184.822,291.4Z" transform="translate(-163.83 -266.076)"/><path class="a" d="M208.822,291.4a.822.822,0,0,0,.822-.822v-1.754a.822.822,0,0,0-1.644,0v1.754A.822.822,0,0,0,208.822,291.4Z" transform="translate(-185.199 -266.076)"/><path class="a" d="M232.822,288a.822.822,0,0,0-.822.822v1.754a.822.822,0,1,0,1.644,0v-1.754A.822.822,0,0,0,232.822,288Z" transform="translate(-206.568 -266.076)"/><path class="a" d="M264.822,291.4a.822.822,0,0,0,.822-.822v-1.754a.822.822,0,0,0-1.644,0v1.754A.822.822,0,0,0,264.822,291.4Z" transform="translate(-235.06 -266.076)"/><path class="a" d="M288.822,291.4a.822.822,0,0,0,.822-.822v-1.754a.822.822,0,0,0-1.644,0v1.754A.822.822,0,0,0,288.822,291.4Z" transform="translate(-256.43 -266.076)"/><path class="a" d="M312.823,291.4a.822.822,0,0,0,.822-.822v-1.754a.822.822,0,0,0-1.644,0v1.754A.822.822,0,0,0,312.823,291.4Z" transform="translate(-277.799 -266.076)"/><path class="a" d="M336.822,288a.822.822,0,0,0-.822.822v1.754a.822.822,0,1,0,1.644,0v-1.754A.822.822,0,0,0,336.822,288Z" transform="translate(-299.167 -266.076)"/><path class="a" d="M368.822,288a.822.822,0,0,0-.822.822v1.754a.822.822,0,1,0,1.644,0v-1.754A.822.822,0,0,0,368.822,288Z" transform="translate(-327.66 -266.076)"/><path class="a" d="M392.822,288a.822.822,0,0,0-.822.822v1.754a.822.822,0,1,0,1.644,0v-1.754A.822.822,0,0,0,392.822,288Z" transform="translate(-349.029 -266.076)"/><path class="a" d="M416.822,288a.822.822,0,0,0-.822.822v1.754a.822.822,0,1,0,1.644,0v-1.754A.822.822,0,0,0,416.822,288Z" transform="translate(-370.398 -266.076)"/><path class="a" d="M440.822,288a.822.822,0,0,0-.822.822v1.754a.822.822,0,1,0,1.644,0v-1.754A.822.822,0,0,0,440.822,288Z" transform="translate(-391.767 -266.076)"/><path class="a" d="M337.592,160H332.33a4.33,4.33,0,1,0,0,8.66h5.262a4.33,4.33,0,0,0,0-8.66Zm0,7.016H332.33a2.686,2.686,0,0,1,0-5.371h5.262a2.686,2.686,0,0,1,0,5.371Z" transform="translate(-292.045 -152.107)"/></g></g></svg>