<svg xmlns="http://www.w3.org/2000/svg" viewBox="1156 1009 45.664 51.637"><defs><style>.a{fill:#6b0328;}</style></defs><g transform="translate(1128.817 1009)"><path class="a" d="M72.023,12.694H69.81a7.169,7.169,0,1,0-9.6-10.633L54,8.2a4.31,4.31,0,0,0-7.965,0L39.818,2.06a7.169,7.169,0,1,0-9.6,10.634H28.007a.824.824,0,0,0-.824.824V24.505a.824.824,0,0,0,.824.824H29.38V50.813a.824.824,0,0,0,.824.824H69.826a.824.824,0,0,0,.824-.824V25.329h1.373a.824.824,0,0,0,.824-.824V13.518A.824.824,0,0,0,72.023,12.694ZM61.368,3.235a5.523,5.523,0,1,1,3.874,9.46H54.326V10.2ZM45.346,14.342h3.845V33.294a.824.824,0,1,0,1.648,0V14.342h3.845V38.431l-4.245-2.547a.824.824,0,0,0-.848,0l-4.245,2.547Zm4.669-7.154a2.666,2.666,0,0,1,2.663,2.663v2.843H47.352V9.851A2.666,2.666,0,0,1,50.015,7.188Zm-20.75-.017a5.523,5.523,0,0,1,9.4-3.938L45.7,10.2v2.5H34.789A5.529,5.529,0,0,1,29.266,7.171ZM71.2,23.681H58.8a.824.824,0,0,0,0,1.648H69v24.66H31.028V25.329h10.2a.824.824,0,0,0,0-1.648H28.831V14.342H43.7V39.886a.824.824,0,0,0,1.248.707l5.069-3.042,5.069,3.042a.824.824,0,0,0,1.248-.707V14.343H71.2Z" transform="translate(0)"/><path class="a" d="M65.013,30a3.88,3.88,0,0,0-3.875,3.875.824.824,0,1,0,1.648,0,2.23,2.23,0,0,1,2.227-2.227.824.824,0,1,0,0-1.648Z" transform="translate(-30.224 -26.704)"/></g></svg>