<svg xmlns="http://www.w3.org/2000/svg" viewBox="373 1529 34.857 51.543"><defs><style>.a{fill:#c07a00;}</style></defs><g transform="translate(325.276 1529)"><g transform="translate(47.724)"><path class="a" d="M81.532,21.692H79.021V13.74A13.756,13.756,0,0,0,65.281,0h-.256a13.756,13.756,0,0,0-13.74,13.74v7.952H48.773a1.049,1.049,0,0,0-1.049,1.049V50.494a1.049,1.049,0,1,0,2.1,0V23.79H80.483V49.445H61.132a1.049,1.049,0,1,0,0,2.1h20.4a1.049,1.049,0,0,0,1.049-1.049V22.741A1.049,1.049,0,0,0,81.532,21.692Zm-28.151,0V13.74A11.656,11.656,0,0,1,65.024,2.1h.256A11.656,11.656,0,0,1,76.923,13.74v7.952Z" transform="translate(-47.724)"/><path class="a" d="M126.091,169.5a1.049,1.049,0,0,0,0-2.1,4.519,4.519,0,1,0,4.519,4.519,1.049,1.049,0,0,0-2.1,0,2.421,2.421,0,1,1-2.421-2.421Z" transform="translate(-108.662 -138.135)"/></g></g></svg>