<svg xmlns="http://www.w3.org/2000/svg" viewBox="867.436 1529 46.049 49.951"><defs><style>.a{fill:#1a835a;}</style></defs><g transform="translate(847.436 1529)"><g transform="translate(20)"><path class="a" d="M59.389,109.855a.78.78,0,0,0-1.055.325q-.069.13-.14.259H55.067a25.9,25.9,0,0,0,.88-2.943.78.78,0,0,0-1.519-.359,23.687,23.687,0,0,1-1.038,3.3h-6a60.856,60.856,0,0,0,.7-8.585H52a.78.78,0,1,0,0-1.561H48.092a59.888,59.888,0,0,0-.827-9.366h5.806a23.372,23.372,0,0,1,.947,2.568.78.78,0,0,0,1.493-.455q-.333-1.093-.747-2.113h2.976c.079.129.158.259.234.39a.78.78,0,1,0,1.351-.782c-.1-.176-.207-.35-.314-.523a.779.779,0,0,0-.325-.508,21.1,21.1,0,0,0-22.477-8.94.781.781,0,0,0,.359,1.519q.759-.18,1.535-.3a20.042,20.042,0,0,0-2.926,7.579h-6.41a.775.775,0,0,0-.362,0H25.463q.29-.387.6-.761a.78.78,0,1,0-1.2-1,20.917,20.917,0,0,0-1.4,1.9.78.78,0,0,0-.327.515,21.075,21.075,0,1,0,36.581,20.891A.78.78,0,0,0,59.389,109.855ZM52.7,112a18.419,18.419,0,0,1-3.372,4.85,12.605,12.605,0,0,1-5.086,3.236A22.212,22.212,0,0,0,47.122,112ZM46.965,89.366a20.947,20.947,0,0,0-2.722-7.3,14.612,14.612,0,0,1,8.068,7.3Zm4-5.115a19.631,19.631,0,0,1,5.715,5.115H54.066a19.346,19.346,0,0,0-4.164-5.7Q50.442,83.944,50.966,84.251ZM37.812,85.743c.967-2.619,2.187-4.182,3.261-4.182,1.259,0,2.63,2.016,3.669,5.393.232.756.444,1.563.633,2.412h-8.6A28.239,28.239,0,0,1,37.812,85.743ZM34.9,97.949a.78.78,0,0,0,.826-.732,53.55,53.55,0,0,1,.735-6.29H45.69a56.882,56.882,0,0,1,.841,9.366h-3.9a.78.78,0,0,0,0,1.561h3.9a58.122,58.122,0,0,1-.706,8.585H42.634a.78.78,0,0,0,0,1.561h2.907c-.229,1.139-.5,2.209-.8,3.193-1.039,3.377-2.411,5.393-3.669,5.393-1.054,0-2.21-1.44-3.174-3.95a.78.78,0,1,0-1.457.559,13.469,13.469,0,0,0,1.472,2.893c-3.507-1.124-6.515-4.076-8.476-8.091a.78.78,0,0,0-.072-1.557h-.614a25.367,25.367,0,0,1-1.715-8.585h1.549a.78.78,0,1,0,0-1.561H27.036a25.115,25.115,0,0,1,2.043-9.366h5.8a55.635,55.635,0,0,0-.711,6.2A.78.78,0,0,0,34.9,97.949Zm-13.32,3.9h3.9a27.076,27.076,0,0,0,1.6,8.585H23.96A19.378,19.378,0,0,1,21.578,101.854Zm5.807-10.927a26.9,26.9,0,0,0-1.911,9.366h-3.9a19.557,19.557,0,0,1,2.83-9.366ZM24.915,112h2.8a21.557,21.557,0,0,0,2.243,3.883,18.059,18.059,0,0,0,2.289,2.589A19.651,19.651,0,0,1,24.915,112Zm24.951,6.5q.29-.267.572-.552a20.12,20.12,0,0,0,4-5.947h2.808A19.481,19.481,0,0,1,49.866,118.5Z" transform="translate(-20 -72.195)"/><path class="a" d="M49.79,15.464a.781.781,0,0,0,.915-.005c.236-.173,5.783-4.29,5.783-9.215A6.244,6.244,0,0,0,44,6.244C44,11.271,49.554,15.3,49.79,15.464Zm.454-13.9a4.688,4.688,0,0,1,4.683,4.683c0,3.389-3.429,6.547-4.688,7.593-1.26-1.027-4.678-4.133-4.678-7.593A4.688,4.688,0,0,1,50.244,1.561Z" transform="translate(-41.659)"/><path class="a" d="M82.244,35.122a.78.78,0,0,0-1.561,0,1.561,1.561,0,1,1-1.561-1.561.78.78,0,1,0,0-1.561,3.122,3.122,0,1,0,3.122,3.122Z" transform="translate(-70.537 -28.878)"/><path class="a" d="M370.244,216A6.251,6.251,0,0,0,364,222.244c0,5.027,5.554,9.052,5.79,9.221a.781.781,0,0,0,.915-.005c.236-.173,5.783-4.29,5.783-9.215A6.251,6.251,0,0,0,370.244,216Zm0,13.837c-1.26-1.028-4.678-4.133-4.678-7.593a4.683,4.683,0,0,1,9.366,0C374.927,225.633,371.5,228.792,370.239,229.837Z" transform="translate(-330.439 -194.927)"/><path class="a" d="M401.463,250.342a.781.781,0,0,0-.78.78,1.561,1.561,0,1,1-1.561-1.561.78.78,0,1,0,0-1.561,3.122,3.122,0,1,0,3.122,3.122A.781.781,0,0,0,401.463,250.342Z" transform="translate(-359.317 -223.805)"/><path class="a" d="M116,286.244c0,5.027,5.554,9.051,5.79,9.22a.78.78,0,0,0,.915-.005c.236-.173,5.783-4.29,5.783-9.215a6.244,6.244,0,0,0-12.488,0Zm6.244-4.683a4.688,4.688,0,0,1,4.683,4.683c0,3.389-3.429,6.547-4.688,7.593-1.26-1.027-4.678-4.133-4.678-7.593A4.688,4.688,0,0,1,122.244,281.561Z" transform="translate(-106.634 -252.683)"/><path class="a" d="M151.122,318.244a3.126,3.126,0,0,0,3.122-3.122.781.781,0,0,0-1.561,0,1.561,1.561,0,1,1-1.561-1.561.781.781,0,0,0,0-1.561,3.122,3.122,0,0,0,0,6.244Z" transform="translate(-135.512 -281.561)"/></g></g></svg>