<svg xmlns="http://www.w3.org/2000/svg" viewBox="711 2815 47 47"><defs><style>.a{fill:#339dc3;}.b{fill:#f1f2f2;}</style></defs><g transform="translate(711 2815)"><circle class="a" cx="23.5" cy="23.5" r="23.5" transform="translate(0 0)"/><path class="b" d="M535.253,489.341a11.869,11.869,0,0,1-3.429.939,5.972,5.972,0,0,0,2.619-3.292,11.907,11.907,0,0,1-3.78,1.444,5.958,5.958,0,0,0-10.141,5.43,16.9,16.9,0,0,1-12.266-6.219,5.958,5.958,0,0,0,1.843,7.946,5.918,5.918,0,0,1-2.7-.746v.077a5.957,5.957,0,0,0,4.773,5.837,5.965,5.965,0,0,1-2.686.1,5.957,5.957,0,0,0,5.572,4.132,12,12,0,0,1-8.812,2.465,16.835,16.835,0,0,0,9.125,2.674c10.946,0,16.934-9.069,16.934-16.934v-.771a12.082,12.082,0,0,0,2.97-3.082h0Zm0,0" transform="translate(-497.245 -474.837)"/></g></svg>