<svg xmlns="http://www.w3.org/2000/svg" viewBox="629 1008 37.674 51.941"><defs><style>.a{fill:#c13611;}</style></defs><g transform="translate(555.505 1009)"><g transform="translate(73.495 -1)"><path class="a" d="M77.111,51.991H63.01a1.057,1.057,0,1,0,0,2.114H76.054V92.659H42.609V54.1H55.654a1.057,1.057,0,1,0,0-2.114h-14.1a1.057,1.057,0,0,0-1.057,1.057V93.716a1.057,1.057,0,0,0,1.057,1.057H77.111a1.057,1.057,0,0,0,1.057-1.057V53.048A1.057,1.057,0,0,0,77.111,51.991Z" transform="translate(-40.495 -42.832)"/><path class="a" d="M113.912,6.968l3.36-3.359V35.1a1.057,1.057,0,1,0,2.114,0V3.609l3.373,3.373a1.057,1.057,0,1,0,1.495-1.495L119.076.31a1.057,1.057,0,0,0-1.495,0l-5.164,5.164a1.057,1.057,0,1,0,1.495,1.495Z" transform="translate(-99.492 0)"/></g></g></svg>