<svg xmlns="http://www.w3.org/2000/svg" viewBox="2210 1938 55.21 79.589"><defs><style>.a{fill:#1a835a;}</style></defs><g transform="translate(2138.017 1938)"><g transform="translate(71.983)"><path class="a" d="M97.17,301.946a1.27,1.27,0,0,0-1.779.247L83.63,317.736l-2.125-4.6a1.27,1.27,0,0,0-.955-.722l-5.007-.793,13.922-18.4a1.27,1.27,0,1,0-2.026-1.533l-15.2,20.091a1.27,1.27,0,0,0,.814,2.021l6.429,1.018,2.728,5.91a1.27,1.27,0,0,0,1.017.73,1.294,1.294,0,0,0,.137.007,1.27,1.27,0,0,0,1.013-.5l13.038-17.233A1.27,1.27,0,0,0,97.17,301.946Z" transform="translate(-71.983 -241.872)"/><path class="a" d="M153.475,69.9,135.669,46.368l8.163-10.79a22.195,22.195,0,1,0-35.412,0l32.917,43.508a1.27,1.27,0,0,0,2.166-.234l2.728-5.91,6.429-1.018a1.27,1.27,0,0,0,.814-2.021Zm-8.311.636a1.271,1.271,0,0,0-.955.722l-2.125,4.6L110.446,34.045a19.655,19.655,0,1,1,31.361,0l-7.73,10.218-6.357-8.4,6-7.933a9.426,9.426,0,0,0,1.921-5.733,9.515,9.515,0,1,0-19.031,0,9.426,9.426,0,0,0,1.921,5.732l6.567,8.68.029.039,7.919,10.467.032.042,17.092,22.591ZM126.127,33.756l-5.569-7.361a6.9,6.9,0,0,1-1.406-4.2,6.975,6.975,0,1,1,13.95,0,6.9,6.9,0,0,1-1.407,4.2Z" transform="translate(-98.522)"/></g></g></svg>