<svg xmlns="http://www.w3.org/2000/svg" viewBox="2534 1938 80.24 80.24"><defs><style>.a{fill:#e6a613;}</style></defs><g transform="translate(2534 1938)"><path class="a" d="M159.887,30.927a15.463,15.463,0,1,0-15.463-15.464A15.481,15.481,0,0,0,159.887,30.927Zm0-28.366a12.9,12.9,0,1,1-12.9,12.9A12.917,12.917,0,0,1,159.887,2.561Z" transform="translate(-119.768)"/><path class="a" d="M197.329,209.382a1.28,1.28,0,1,0,.478,2.516,27.508,27.508,0,0,1,10.15-.005,1.28,1.28,0,1,0,.475-2.516A30.078,30.078,0,0,0,197.329,209.382Z" transform="translate(-162.777 -173.205)"/><path class="a" d="M200.9,110.985a8.2,8.2,0,0,0,6.8-3.619,1.28,1.28,0,1,0-2.121-1.434,5.64,5.64,0,0,1-9.36,0,1.28,1.28,0,1,0-2.121,1.434A8.2,8.2,0,0,0,200.9,110.985Z" transform="translate(-160.776 -87.38)"/><path class="a" d="M279.875,202.746A11.246,11.246,0,1,0,291.121,191.5,11.259,11.259,0,0,0,279.875,202.746Zm11.246-8.685a8.685,8.685,0,1,1-8.686,8.685A8.7,8.7,0,0,1,291.121,194.061Z" transform="translate(-232.094 -158.807)"/><path class="a" d="M319.936,270.248a6.146,6.146,0,0,0,5.094-2.71,1.28,1.28,0,0,0-2.121-1.434,3.582,3.582,0,0,1-5.946,0,1.28,1.28,0,1,0-2.121,1.434A6.145,6.145,0,0,0,319.936,270.248Z" transform="translate(-260.909 -220.206)"/><path class="a" d="M69.621,213.993a11.246,11.246,0,1,0-11.246-11.246A11.259,11.259,0,0,0,69.621,213.993Zm0-19.932a8.685,8.685,0,1,1-8.686,8.685A8.7,8.7,0,0,1,69.621,194.061Z" transform="translate(-48.409 -158.807)"/><path class="a" d="M98.436,270.248a6.146,6.146,0,0,0,5.094-2.71,1.28,1.28,0,0,0-2.121-1.434,3.582,3.582,0,0,1-5.946,0,1.28,1.28,0,0,0-2.121,1.434A6.146,6.146,0,0,0,98.436,270.248Z" transform="translate(-77.224 -220.206)"/><path class="a" d="M21.212,338.25A21.236,21.236,0,0,0,0,359.462a1.28,1.28,0,0,0,2.561,0,18.651,18.651,0,1,1,37.3,0,1.28,1.28,0,0,0,2.561,0A21.236,21.236,0,0,0,21.212,338.25Z" transform="translate(0 -280.503)"/><path class="a" d="M262.463,338.25a21.067,21.067,0,0,0-16.884,8.37,1.28,1.28,0,1,0,2.037,1.552,18.652,18.652,0,0,1,33.5,11.291,1.28,1.28,0,1,0,2.561,0A21.237,21.237,0,0,0,262.463,338.25Z" transform="translate(-203.436 -280.503)"/></g></svg>