<svg xmlns="http://www.w3.org/2000/svg" viewBox="2027 1934 78.031 89.519"><defs><style>.a{fill:#c13611;}</style></defs><g transform="translate(2000.322 1934)"><g transform="translate(26.678)"><g transform="translate(0)"><path class="a" d="M94.005,203.509H70.388L62.162,176.78l30.648-9.235a1.507,1.507,0,0,0,.771-2.347,37.126,37.126,0,0,0-37.446-14.076c-.345.093-1.287.3-1.6.375l-.4-1.317a1.507,1.507,0,0,0-2.886.871l.4,1.316c-.3.1-1.029.356-1.537.569a37.207,37.207,0,0,0-23.434,32.423,1.507,1.507,0,0,0,1.939,1.53l30.656-9.238,7.959,25.86H46.986a1.507,1.507,0,1,0,0,3.014H94.005a1.507,1.507,0,1,0,0-3.014ZM53.956,154.787h0q1.171-.353,2.358-.62c5.987.709,11.094,3.717,15.183,8.946a31.666,31.666,0,0,1,3.915,6.526l-31.135,9.382a31.664,31.664,0,0,1-.343-7.6c.52-6.615,3.113-11.942,7.707-15.841q1.137-.435,2.315-.791ZM89.8,165.3l-11.482,3.46a34.425,34.425,0,0,0-4.384-7.421,27.063,27.063,0,0,0-9.759-8.011A34.359,34.359,0,0,1,89.8,165.3Zm-45.2-6.035a27.076,27.076,0,0,0-3.679,12.023,34.434,34.434,0,0,0,.447,8.608l-11.482,3.46A34.334,34.334,0,0,1,44.6,159.267Z" transform="translate(-26.678 -117.005)"/><path class="a" d="M228.179,77.234h7.23a1.507,1.507,0,1,0,0-3.014h-7.23a1.507,1.507,0,1,0,0,3.014Z" transform="translate(-183.614 -58.241)"/><path class="a" d="M350.271,74.22h-7.229a1.507,1.507,0,0,0,0,3.014h7.229a1.507,1.507,0,0,0,0-3.014Z" transform="translate(-273.747 -58.241)"/><path class="a" d="M332.646,103.844a1.507,1.507,0,1,0-2.131,2.131l2.466,2.467a1.507,1.507,0,0,0,2.131-2.131Z" transform="translate(-264.753 -81.14)"/><path class="a" d="M300.893,118.071v6.863a1.507,1.507,0,0,0,3.014,0v-6.863a1.507,1.507,0,1,0-3.014,0Z" transform="translate(-241.855 -91.468)"/><path class="a" d="M263.164,103.843,260.7,106.31a1.507,1.507,0,0,0,2.131,2.131l2.466-2.467a1.507,1.507,0,1,0-2.131-2.131Z" transform="translate(-209.967 -81.14)"/><path class="a" d="M288.25,66.966a5.39,5.39,0,1,0-5.39-5.39A5.4,5.4,0,0,0,288.25,66.966Zm0-7.765a2.376,2.376,0,1,1-2.376,2.376A2.378,2.378,0,0,1,288.25,59.2Z" transform="translate(-227.705 -44.089)"/><path class="a" d="M263.164,38.623a1.507,1.507,0,1,0,2.131-2.131l-2.466-2.466a1.507,1.507,0,1,0-2.131,2.131Z" transform="translate(-209.967 -26.354)"/><path class="a" d="M302.4,9.877a1.507,1.507,0,0,0,1.507-1.507V1.507a1.507,1.507,0,0,0-3.014,0V8.37A1.507,1.507,0,0,0,302.4,9.877Z" transform="translate(-241.855)"/><path class="a" d="M331.581,39.065a1.5,1.5,0,0,0,1.066-.441l2.466-2.466a1.507,1.507,0,1,0-2.131-2.131l-2.466,2.466a1.507,1.507,0,0,0,1.066,2.573Z" transform="translate(-264.753 -26.354)"/></g></g></g></svg>